<svg width="31" height="22" viewBox="0 0 31 22" fill="none" xmlns="http://www.w3.org/2000/svg">
<path d="M22.7921 20.3048H11.4597C9.72896 20.3043 8.03245 19.8226 6.55975 18.9135C5.08704 18.0044 3.89614 16.7037 3.12013 15.1567C2.34413 13.6097 2.01358 11.8774 2.16543 10.1533C2.31729 8.42927 2.94556 6.78141 3.98003 5.39389C5.01451 4.00636 6.41445 2.93382 8.0234 2.29613C9.63235 1.65843 11.3869 1.4807 13.0911 1.7828C14.7952 2.0849 16.3818 2.85492 17.6735 4.00682C18.9652 5.15872 19.9112 6.64712 20.4057 8.30569H22.7921C24.3833 8.30569 25.9093 8.93779 27.0345 10.0629C28.1596 11.1881 28.7917 12.7141 28.7917 14.3052C28.7917 15.8964 28.1596 17.4224 27.0345 18.5476C25.9093 19.6727 24.3833 20.3048 22.7921 20.3048Z" stroke="#F5AB00" stroke-width="2.66646" stroke-linecap="round" stroke-linejoin="round"/>
</svg>
