<svg width="20" height="19" viewBox="0 0 20 19" fill="none" xmlns="http://www.w3.org/2000/svg">
<path d="M9.59946 1.90053C9.63598 1.82675 9.6924 1.76464 9.76234 1.72122C9.83228 1.67779 9.91297 1.65479 9.9953 1.65479C10.0776 1.65479 10.1583 1.67779 10.2283 1.72122C10.2982 1.76464 10.3546 1.82675 10.3911 1.90053L12.3161 5.79968C12.4429 6.05631 12.6301 6.27835 12.8616 6.44672C13.0931 6.61509 13.3621 6.72477 13.6453 6.76634L17.9503 7.39634C18.0318 7.40815 18.1085 7.44256 18.1715 7.49567C18.2345 7.54877 18.2814 7.61846 18.3069 7.69684C18.3324 7.77522 18.3355 7.85917 18.3157 7.9392C18.296 8.01922 18.2543 8.09213 18.1953 8.14967L15.0819 11.1813C14.8766 11.3814 14.723 11.6284 14.6343 11.901C14.5456 12.1736 14.5245 12.4637 14.5728 12.7463L15.3078 17.0296C15.3222 17.1112 15.3134 17.1951 15.2824 17.2719C15.2513 17.3486 15.1994 17.4151 15.1324 17.4638C15.0654 17.5124 14.9861 17.5413 14.9035 17.547C14.8209 17.5528 14.7384 17.5352 14.6653 17.4963L10.817 15.473C10.5634 15.3398 10.2813 15.2703 9.99488 15.2703C9.70848 15.2703 9.42637 15.3398 9.1728 15.473L5.32532 17.4963C5.25226 17.535 5.16982 17.5524 5.08736 17.5465C5.00491 17.5406 4.92575 17.5118 4.8589 17.4631C4.79205 17.4145 4.74018 17.3481 4.7092 17.2715C4.67822 17.1948 4.66937 17.111 4.68366 17.0296L5.41782 12.7471C5.46631 12.4644 5.4453 12.1741 5.3566 11.9014C5.2679 11.6286 5.11416 11.3814 4.90865 11.1813L1.79534 8.1505C1.73583 8.09303 1.69366 8.02 1.67364 7.93973C1.65361 7.85946 1.65653 7.77518 1.68207 7.69649C1.7076 7.61781 1.75473 7.54787 1.81807 7.49465C1.88141 7.44144 1.95842 7.40708 2.04033 7.3955L6.34448 6.76634C6.62803 6.72509 6.8973 6.61555 7.12913 6.44716C7.36096 6.27877 7.54839 6.05657 7.67531 5.79968L9.59946 1.90053Z" fill="#F5AB00" stroke="#F5AB00" stroke-width="1.66666" stroke-linecap="round" stroke-linejoin="round"/>
</svg>
