<svg width="20" height="21" viewBox="0 0 20 21" fill="none" xmlns="http://www.w3.org/2000/svg">
<g clip-path="url(#clip0_2001_2278)">
<path d="M13.3263 6.83594C14.6524 6.83594 15.9242 7.36272 16.8619 8.3004C17.7995 9.23807 18.3263 10.5098 18.3263 11.8359V17.6692H14.993V11.8359C14.993 11.3939 14.8174 10.97 14.5048 10.6574C14.1923 10.3448 13.7684 10.1693 13.3263 10.1693C12.8843 10.1693 12.4604 10.3448 12.1478 10.6574C11.8353 10.97 11.6597 11.3939 11.6597 11.8359V17.6692H8.32636V11.8359C8.32636 10.5098 8.85314 9.23807 9.79082 8.3004C10.7285 7.36272 12.0003 6.83594 13.3263 6.83594Z" stroke="#DBEAFE" stroke-width="1.66666" stroke-linecap="round" stroke-linejoin="round"/>
<path d="M4.99304 7.66895H1.65973V17.6689H4.99304V7.66895Z" stroke="#DBEAFE" stroke-width="1.66666" stroke-linecap="round" stroke-linejoin="round"/>
<path d="M3.32638 5.16926C4.24685 5.16926 4.99304 4.42307 4.99304 3.5026C4.99304 2.58213 4.24685 1.83594 3.32638 1.83594C2.40591 1.83594 1.65973 2.58213 1.65973 3.5026C1.65973 4.42307 2.40591 5.16926 3.32638 5.16926Z" stroke="#DBEAFE" stroke-width="1.66666" stroke-linecap="round" stroke-linejoin="round"/>
</g>
<defs>
<clipPath id="clip0_2001_2278">
<rect width="19.9999" height="19.9999" fill="white" transform="translate(-0.00693321 0.168945)"/>
</clipPath>
</defs>
</svg>
