<svg width="21" height="21" viewBox="0 0 21 21" fill="none" xmlns="http://www.w3.org/2000/svg">
<g clip-path="url(#clip0_2001_2290)">
<path d="M15.1521 1.83594H6.81882C4.51765 1.83594 2.65218 3.70141 2.65218 6.00258V14.3359C2.65218 16.6371 4.51765 18.5025 6.81882 18.5025H15.1521C17.4533 18.5025 19.3188 16.6371 19.3188 14.3359V6.00258C19.3188 3.70141 17.4533 1.83594 15.1521 1.83594Z" stroke="#DBEAFE" stroke-width="1.66666" stroke-linecap="round" stroke-linejoin="round"/>
<path d="M14.3188 9.64418C14.4216 10.3377 14.3032 11.046 13.9803 11.6684C13.6573 12.2907 13.1464 12.7953 12.5201 13.1106C11.8939 13.4258 11.1842 13.5355 10.492 13.4241C9.79974 13.3127 9.16028 12.9859 8.66451 12.4901C8.16875 11.9944 7.84193 11.3549 7.73054 10.6627C7.61915 9.97048 7.72887 9.26076 8.04409 8.6345C8.3593 8.00824 8.86397 7.49731 9.4863 7.1744C10.1086 6.85148 10.8169 6.73302 11.5105 6.83586C12.2179 6.94077 12.8728 7.27041 13.3785 7.77611C13.8842 8.28181 14.2139 8.93675 14.3188 9.64418Z" stroke="#DBEAFE" stroke-width="1.66666" stroke-linecap="round" stroke-linejoin="round"/>
<path d="M15.5688 5.58594H15.5771" stroke="#DBEAFE" stroke-width="1.66666" stroke-linecap="round" stroke-linejoin="round"/>
</g>
<defs>
<clipPath id="clip0_2001_2290">
<rect width="19.9999" height="19.9999" fill="white" transform="translate(0.985519 0.168945)"/>
</clipPath>
</defs>
</svg>
