<svg width="32" height="32" viewBox="0 0 32 32" fill="none" xmlns="http://www.w3.org/2000/svg">
<path d="M-0.00465393 16.0012C-0.00465393 7.16535 7.15825 0.00244141 15.9941 0.00244141C24.83 0.00244141 31.9929 7.16535 31.9929 16.0012C31.9929 24.8371 24.83 32 15.9941 32C7.15825 32 -0.00465393 24.8371 -0.00465393 16.0012Z" fill="#F5AB00"/>
<path d="M18.6597 10.0039C18.3062 10.0039 17.9672 10.1443 17.7172 10.3943C17.4673 10.6442 17.3269 10.9832 17.3269 11.3367V15.3349C17.3269 15.6884 17.4673 16.0274 17.7172 16.2773C17.9672 16.5273 18.3062 16.6677 18.6597 16.6677C18.8364 16.6677 19.0059 16.7379 19.1309 16.8629C19.2558 16.9879 19.326 17.1573 19.326 17.3341V18.0005C19.326 18.3539 19.1856 18.6929 18.9357 18.9429C18.6857 19.1928 18.3467 19.3332 17.9933 19.3332C17.8165 19.3332 17.647 19.4034 17.5221 19.5284C17.3971 19.6534 17.3269 19.8229 17.3269 19.9996V21.3324C17.3269 21.5091 17.3971 21.6786 17.5221 21.8036C17.647 21.9285 17.8165 21.9987 17.9933 21.9987C19.0537 21.9987 20.0707 21.5775 20.8205 20.8277C21.5703 20.0779 21.9916 19.0609 21.9916 18.0005V11.3367C21.9916 10.9832 21.8511 10.6442 21.6012 10.3943C21.3513 10.1443 21.0123 10.0039 20.6588 10.0039H18.6597Z" stroke="#09235C" stroke-width="1.33276" stroke-linecap="round" stroke-linejoin="round"/>
<path d="M11.3295 10.0039C10.976 10.0039 10.637 10.1443 10.3871 10.3943C10.1371 10.6442 9.99672 10.9832 9.99672 11.3367V15.3349C9.99672 15.6884 10.1371 16.0274 10.3871 16.2773C10.637 16.5273 10.976 16.6677 11.3295 16.6677C11.5062 16.6677 11.6757 16.7379 11.8007 16.8629C11.9256 16.9879 11.9959 17.1573 11.9959 17.3341V18.0005C11.9959 18.3539 11.8554 18.6929 11.6055 18.9429C11.3556 19.1928 11.0166 19.3332 10.6631 19.3332C10.4864 19.3332 10.3169 19.4034 10.1919 19.5284C10.0669 19.6534 9.99672 19.8229 9.99672 19.9996V21.3324C9.99672 21.5091 10.0669 21.6786 10.1919 21.8036C10.3169 21.9285 10.4864 21.9987 10.6631 21.9987C11.7235 21.9987 12.7405 21.5775 13.4903 20.8277C14.2401 20.0779 14.6614 19.0609 14.6614 18.0005V11.3367C14.6614 10.9832 14.521 10.6442 14.271 10.3943C14.0211 10.1443 13.6821 10.0039 13.3286 10.0039H11.3295Z" stroke="#09235C" stroke-width="1.33276" stroke-linecap="round" stroke-linejoin="round"/>
</svg>
