<svg width="65" height="65" viewBox="0 0 65 65" fill="none" xmlns="http://www.w3.org/2000/svg">
<path d="M0.72179 10.3777C0.72179 4.85484 5.19894 0.377686 10.7218 0.377686H54.7169C60.2398 0.377686 64.7169 4.85484 64.7169 10.3777V54.3728C64.7169 59.8957 60.2398 64.3728 54.7169 64.3728H10.7218C5.19895 64.3728 0.72179 59.8957 0.72179 54.3728V10.3777Z" fill="url(#paint0_linear_2001_1835)"/>
<path d="M43.7172 46.3725H26.7205C24.1248 46.3718 21.5803 45.6494 19.3715 44.2858C17.1627 42.9223 15.3766 40.9714 14.2127 38.6512C13.0488 36.331 12.5531 33.7329 12.7808 31.1471C13.0086 28.5613 13.9509 26.0898 15.5024 24.0088C17.0539 21.9278 19.1536 20.3191 21.5667 19.3627C23.9799 18.4063 26.6114 18.1397 29.1674 18.5928C31.7233 19.0459 34.1029 20.2008 36.0402 21.9285C37.9775 23.6561 39.3963 25.8884 40.1379 28.376H43.7172C46.1037 28.376 48.3925 29.324 50.08 31.0115C51.7675 32.699 52.7155 34.9878 52.7155 37.3742C52.7155 39.7607 51.7675 42.0495 50.08 43.737C48.3925 45.4245 46.1037 46.3725 43.7172 46.3725Z" stroke="white" stroke-width="3.99922" stroke-linecap="round" stroke-linejoin="round"/>
<defs>
<linearGradient id="paint0_linear_2001_1835" x1="0.72179" y1="32.3753" x2="64.7169" y2="32.3753" gradientUnits="userSpaceOnUse">
<stop stop-color="#AD46FF"/>
<stop offset="1" stop-color="#9810FA"/>
</linearGradient>
</defs>
</svg>
