<svg width="65" height="65" viewBox="0 0 65 65" fill="none" xmlns="http://www.w3.org/2000/svg">
<path d="M0.72179 10.0498C0.72179 4.52696 5.19894 0.0498047 10.7218 0.0498047H54.7169C60.2398 0.0498047 64.7169 4.52696 64.7169 10.0498V54.045C64.7169 59.5678 60.2398 64.045 54.7169 64.045H10.7218C5.19895 64.045 0.72179 59.5678 0.72179 54.045V10.0498Z" fill="url(#paint0_linear_2001_1806)"/>
<path d="M32.7194 24.0489C42.6586 24.0489 50.7159 21.3632 50.7159 18.0501C50.7159 14.737 42.6586 12.0513 32.7194 12.0513C22.7802 12.0513 14.7229 14.737 14.7229 18.0501C14.7229 21.3632 22.7802 24.0489 32.7194 24.0489Z" stroke="white" stroke-width="3.99922" stroke-linecap="round" stroke-linejoin="round"/>
<path d="M14.7229 18.05V46.0446C14.7229 47.6356 16.6189 49.1614 19.9939 50.2864C23.3689 51.4114 27.9464 52.0435 32.7194 52.0435C37.4923 52.0435 42.0698 51.4114 45.4448 50.2864C48.8198 49.1614 50.7159 47.6356 50.7159 46.0446V18.05" stroke="white" stroke-width="3.99922" stroke-linecap="round" stroke-linejoin="round"/>
<path d="M14.7229 32.0474C14.7229 33.6384 16.6189 35.1642 19.9939 36.2892C23.3689 37.4142 27.9464 38.0462 32.7194 38.0462C37.4923 38.0462 42.0698 37.4142 45.4448 36.2892C48.8198 35.1642 50.7159 33.6384 50.7159 32.0474" stroke="white" stroke-width="3.99922" stroke-linecap="round" stroke-linejoin="round"/>
<defs>
<linearGradient id="paint0_linear_2001_1806" x1="0.72179" y1="32.0474" x2="64.7169" y2="32.0474" gradientUnits="userSpaceOnUse">
<stop stop-color="#00C950"/>
<stop offset="1" stop-color="#00A63E"/>
</linearGradient>
</defs>
</svg>
