<svg width="32" height="32" viewBox="0 0 32 32" fill="none" xmlns="http://www.w3.org/2000/svg">
<path d="M21.3272 27.9933V25.3268C21.3272 23.9124 20.7654 22.556 19.7653 21.5559C18.7651 20.5558 17.4087 19.9939 15.9943 19.9939H7.99492C6.58054 19.9939 5.22408 20.5558 4.22397 21.5559C3.22385 22.556 2.66199 23.9124 2.66199 25.3268V27.9933" stroke="#F5AB00" stroke-width="2.66646" stroke-linecap="round" stroke-linejoin="round"/>
<path d="M21.3272 4.16553C22.4708 4.462 23.4836 5.12981 24.2066 6.06413C24.9296 6.99846 25.3219 8.14641 25.3219 9.3278C25.3219 10.5092 24.9296 11.6571 24.2066 12.5915C23.4836 13.5258 22.4708 14.1936 21.3272 14.4901" stroke="#F5AB00" stroke-width="2.66646" stroke-linecap="round" stroke-linejoin="round"/>
<path d="M29.3266 27.9931V25.3266C29.3258 24.145 28.9325 22.9971 28.2086 22.0633C27.4846 21.1294 26.471 20.4624 25.327 20.167" stroke="#F5AB00" stroke-width="2.66646" stroke-linecap="round" stroke-linejoin="round"/>
<path d="M11.9946 14.661C14.9399 14.661 17.3276 12.2733 17.3276 9.32805C17.3276 6.38275 14.9399 3.99512 11.9946 3.99512C9.04933 3.99512 6.6617 6.38275 6.6617 9.32805C6.6617 12.2733 9.04933 14.661 11.9946 14.661Z" stroke="#F5AB00" stroke-width="2.66646" stroke-linecap="round" stroke-linejoin="round"/>
</svg>
