<svg width="20" height="21" viewBox="0 0 20 21" fill="none" xmlns="http://www.w3.org/2000/svg">
<path d="M12.4905 18.5025V15.1692C12.6064 14.1253 12.3071 13.0777 11.6572 12.2526C14.1571 12.2526 16.6571 10.5859 16.6571 7.66924C16.7238 6.62758 16.4321 5.60259 15.8238 4.75259C16.0571 3.79426 16.0571 2.79427 15.8238 1.83594C15.8238 1.83594 14.9905 1.83594 13.3238 3.08593C11.1238 2.66927 8.85717 2.66927 6.65718 3.08593C4.99052 1.83594 4.15719 1.83594 4.15719 1.83594C3.90719 2.79427 3.90719 3.79426 4.15719 4.75259C3.55042 5.59916 3.25592 6.6299 3.32386 7.66924C3.32386 10.5859 5.82385 12.2526 8.32384 12.2526C7.99884 12.6609 7.75718 13.1276 7.61551 13.6275C7.47384 14.1275 7.43218 14.6525 7.49051 15.1692V18.5025" stroke="#DBEAFE" stroke-width="1.66666" stroke-linecap="round" stroke-linejoin="round"/>
<path d="M7.49051 15.1686C3.73219 16.8353 3.32386 13.502 1.6572 13.502" stroke="#DBEAFE" stroke-width="1.66666" stroke-linecap="round" stroke-linejoin="round"/>
</svg>
