<svg width="32" height="32" viewBox="0 0 32 32" fill="none" xmlns="http://www.w3.org/2000/svg">
<path d="M15.9943 29.3265C23.3576 29.3265 29.3266 23.3574 29.3266 15.9942C29.3266 8.63095 23.3576 2.66187 15.9943 2.66187C8.63107 2.66187 2.66199 8.63095 2.66199 15.9942C2.66199 23.3574 8.63107 29.3265 15.9943 29.3265Z" stroke="#F5AB00" stroke-width="2.66646" stroke-linecap="round" stroke-linejoin="round"/>
<path d="M15.9943 23.9935C20.4123 23.9935 23.9937 20.4121 23.9937 15.9941C23.9937 11.5762 20.4123 7.99475 15.9943 7.99475C11.5764 7.99475 7.99492 11.5762 7.99492 15.9941C7.99492 20.4121 11.5764 23.9935 15.9943 23.9935Z" stroke="#F5AB00" stroke-width="2.66646" stroke-linecap="round" stroke-linejoin="round"/>
<path d="M15.9943 18.6606C17.467 18.6606 18.6608 17.4667 18.6608 15.9941C18.6608 14.5215 17.467 13.3276 15.9943 13.3276C14.5217 13.3276 13.3279 14.5215 13.3279 15.9941C13.3279 17.4667 14.5217 18.6606 15.9943 18.6606Z" stroke="#F5AB00" stroke-width="2.66646" stroke-linecap="round" stroke-linejoin="round"/>
</svg>
