<svg width="16" height="16" viewBox="0 0 16 16" fill="none" xmlns="http://www.w3.org/2000/svg">
<path d="M9.21048 11.0242C9.3481 11.0874 9.50315 11.1019 9.65008 11.0652C9.79701 11.0285 9.92706 10.9428 10.0188 10.8223L10.2554 10.5124C10.3795 10.3469 10.5405 10.2126 10.7255 10.12C10.9106 10.0275 11.1147 9.97934 11.3216 9.97934H13.3207C13.6742 9.97934 14.0132 10.1198 14.2631 10.3697C14.5131 10.6196 14.6535 10.9586 14.6535 11.3121V13.3112C14.6535 13.6647 14.5131 14.0037 14.2631 14.2536C14.0132 14.5036 13.6742 14.644 13.3207 14.644C10.1395 14.644 7.08855 13.3803 4.83908 11.1308C2.58961 8.88133 1.32587 5.83039 1.32587 2.64917C1.32587 2.2957 1.46629 1.9567 1.71623 1.70676C1.96617 1.45682 2.30516 1.31641 2.65863 1.31641H4.65777C5.01124 1.31641 5.35024 1.45682 5.60018 1.70676C5.85012 1.9567 5.99053 2.2957 5.99053 2.64917V4.6483C5.99053 4.85521 5.94236 5.05927 5.84983 5.24433C5.7573 5.42939 5.62295 5.59037 5.45743 5.71451L5.14556 5.94841C5.02323 6.04182 4.937 6.1747 4.90153 6.32448C4.86606 6.47426 4.88353 6.6317 4.95098 6.77006C5.86171 8.61984 7.35956 10.1158 9.21048 11.0242Z" stroke="#F5AB00" stroke-width="1.33276" stroke-linecap="round" stroke-linejoin="round"/>
</svg>
