<svg width="16" height="16" viewBox="0 0 16 16" fill="none" xmlns="http://www.w3.org/2000/svg">
<g clip-path="url(#clip0_2001_2167)">
<path d="M13.3207 6.66112C13.3207 9.98835 9.62963 13.4535 8.39016 14.5237C8.2747 14.6106 8.13414 14.6575 7.98967 14.6575C7.8452 14.6575 7.70464 14.6106 7.58918 14.5237C6.34971 13.4535 2.65863 9.98835 2.65863 6.66112C2.65863 5.24724 3.22029 3.89127 4.22006 2.8915C5.21982 1.89174 6.57579 1.33008 7.98967 1.33008C9.40355 1.33008 10.7595 1.89174 11.7593 2.8915C12.759 3.89127 13.3207 5.24724 13.3207 6.66112Z" stroke="#F5AB00" stroke-width="1.33276" stroke-linecap="round" stroke-linejoin="round"/>
<path d="M7.98967 8.66039C9.09377 8.66039 9.98881 7.76534 9.98881 6.66125C9.98881 5.55715 9.09377 4.66211 7.98967 4.66211C6.88558 4.66211 5.99053 5.55715 5.99053 6.66125C5.99053 7.76534 6.88558 8.66039 7.98967 8.66039Z" stroke="#F5AB00" stroke-width="1.33276" stroke-linecap="round" stroke-linejoin="round"/>
</g>
<defs>
<clipPath id="clip0_2001_2167">
<rect width="15.9931" height="15.9931" fill="white" transform="translate(-0.00688648 -0.00292969)"/>
</clipPath>
</defs>
</svg>
