<svg width="65" height="65" viewBox="0 0 65 65" fill="none" xmlns="http://www.w3.org/2000/svg">
<path d="M0.72179 10.7056C0.72179 5.18272 5.19894 0.705566 10.7218 0.705566H54.7169C60.2398 0.705566 64.7169 5.18272 64.7169 10.7056V54.7007C64.7169 60.2236 60.2398 64.7007 54.7169 64.7007H10.7218C5.19895 64.7007 0.72179 60.2236 0.72179 54.7007V10.7056Z" fill="url(#paint0_linear_2001_1862)"/>
<path d="M28.0623 16.9785C28.1724 15.8194 28.7108 14.743 29.5722 13.9597C30.4336 13.1763 31.556 12.7422 32.7204 12.7422C33.8847 12.7422 35.0072 13.1763 35.8686 13.9597C36.7299 14.743 37.2683 15.8194 37.3785 16.9785C37.4447 17.7273 37.6903 18.4491 38.0946 19.0828C38.4989 19.7165 39.0499 20.2435 39.7009 20.6192C40.352 20.9948 41.084 21.2081 41.835 21.2409C42.586 21.2738 43.3338 21.1252 44.0152 20.8078C45.0732 20.3274 46.2721 20.2579 47.3785 20.6128C48.485 20.9676 49.4198 21.7215 50.0011 22.7276C50.5823 23.7337 50.7684 24.9201 50.5232 26.0559C50.278 27.1917 49.6189 28.1956 48.6743 28.8722C48.0592 29.3038 47.557 29.8772 47.2104 30.5439C46.8637 31.2106 46.6828 31.951 46.6828 32.7025C46.6828 33.4539 46.8637 34.1943 47.2104 34.861C47.557 35.5277 48.0592 36.1011 48.6743 36.5327C49.6189 37.2094 50.278 38.2133 50.5232 39.349C50.7684 40.4848 50.5823 41.6712 50.0011 42.6773C49.4198 43.6834 48.485 44.4373 47.3785 44.7921C46.2721 45.147 45.0732 45.0775 44.0152 44.5972C43.3338 44.2797 42.586 44.1312 41.835 44.164C41.084 44.1968 40.352 44.4101 39.7009 44.7858C39.0499 45.1614 38.4989 45.6884 38.0946 46.3221C37.6903 46.9559 37.4447 47.6776 37.3785 48.4264C37.2683 49.5855 36.7299 50.6619 35.8686 51.4453C35.0072 52.2286 33.8847 52.6627 32.7204 52.6627C31.556 52.6627 30.4336 52.2286 29.5722 51.4453C28.7108 50.6619 28.1724 49.5855 28.0623 48.4264C27.9962 47.6774 27.7505 46.9553 27.3461 46.3214C26.9418 45.6874 26.3905 45.1603 25.7392 44.7846C25.0878 44.4089 24.3555 44.1957 23.6043 44.163C22.8531 44.1304 22.105 44.2793 21.4236 44.5972C20.3655 45.0775 19.1666 45.147 18.0602 44.7921C16.9538 44.4373 16.019 43.6834 15.4377 42.6773C14.8564 41.6712 14.6703 40.4848 14.9155 39.349C15.1608 38.2133 15.8198 37.2094 16.7645 36.5327C17.3796 36.1011 17.8817 35.5277 18.2284 34.861C18.575 34.1943 18.756 33.4539 18.756 32.7025C18.756 31.951 18.575 31.2106 18.2284 30.5439C17.8817 29.8772 17.3796 29.3038 16.7645 28.8722C15.8212 28.1952 15.1633 27.1917 14.9186 26.0567C14.674 24.9217 14.86 23.7363 15.4407 22.7308C16.0213 21.7254 16.9551 20.9717 18.0604 20.6163C19.1657 20.2609 20.3637 20.3291 21.4216 20.8078C22.1029 21.1252 22.8508 21.2738 23.6017 21.2409C24.3527 21.2081 25.0847 20.9948 25.7358 20.6192C26.3869 20.2435 26.9379 19.7165 27.3421 19.0828C27.7464 18.4491 27.9921 17.7273 28.0583 16.9785" stroke="white" stroke-width="3.99922" stroke-linecap="round" stroke-linejoin="round"/>
<path d="M32.7194 38.7023C36.0324 38.7023 38.7182 36.0165 38.7182 32.7034C38.7182 29.3904 36.0324 26.7046 32.7194 26.7046C29.4063 26.7046 26.7205 29.3904 26.7205 32.7034C26.7205 36.0165 29.4063 38.7023 32.7194 38.7023Z" stroke="white" stroke-width="3.99922" stroke-linecap="round" stroke-linejoin="round"/>
<defs>
<linearGradient id="paint0_linear_2001_1862" x1="0.72179" y1="32.7031" x2="64.7169" y2="32.7031" gradientUnits="userSpaceOnUse">
<stop stop-color="#FF6900"/>
<stop offset="1" stop-color="#F54900"/>
</linearGradient>
</defs>
</svg>
