<svg width="27" height="30" viewBox="0 0 27 30" fill="none" xmlns="http://www.w3.org/2000/svg">
<path d="M2.69017 17.6386C2.43787 17.6394 2.19051 17.5687 1.97682 17.4346C1.76314 17.3004 1.59189 17.1084 1.48299 16.8808C1.37409 16.6533 1.33199 16.3995 1.3616 16.1489C1.39121 15.8984 1.4913 15.6613 1.65024 15.4654L14.8492 1.86644C14.9483 1.75216 15.0832 1.67493 15.2319 1.64744C15.3805 1.61994 15.5342 1.64381 15.6675 1.71513C15.8008 1.78644 15.9059 1.90097 15.9656 2.03991C16.0253 2.17885 16.0359 2.33394 15.9958 2.47973L13.436 10.5058C13.3605 10.7078 13.3352 10.9251 13.3621 11.1391C13.3891 11.3531 13.4676 11.5573 13.5908 11.7343C13.714 11.9112 13.8783 12.0557 14.0697 12.1552C14.261 12.2547 14.4736 12.3064 14.6893 12.3057H24.0219C24.2742 12.3048 24.5215 12.3755 24.7352 12.5097C24.9489 12.6438 25.1202 12.8358 25.2291 13.0634C25.338 13.291 25.3801 13.5448 25.3505 13.7953C25.3208 14.0459 25.2208 14.2829 25.0618 14.4788L11.8628 28.0778C11.7638 28.1921 11.6289 28.2693 11.4802 28.2968C11.3315 28.3243 11.1779 28.3004 11.0446 28.2291C10.9112 28.1578 10.8061 28.0433 10.7464 27.9043C10.6868 27.7654 10.6761 27.6103 10.7162 27.4645L13.276 19.4384C13.3515 19.2364 13.3769 19.0191 13.3499 18.8052C13.3229 18.5912 13.2445 18.387 13.1213 18.21C12.998 18.033 12.8337 17.8885 12.6424 17.789C12.4511 17.6895 12.2384 17.6379 12.0228 17.6386H2.69017Z" stroke="#F5AB00" stroke-width="2.66646" stroke-linecap="round" stroke-linejoin="round"/>
</svg>
