<svg width="33" height="33" viewBox="0 0 33 33" fill="none" xmlns="http://www.w3.org/2000/svg">
<path d="M16.4077 27.638V30.3045" stroke="#F5AB00" stroke-width="2.66646" stroke-linecap="round" stroke-linejoin="round"/>
<path d="M16.4077 3.63983V6.3063" stroke="#F5AB00" stroke-width="2.66646" stroke-linecap="round" stroke-linejoin="round"/>
<path d="M23.0739 27.638V30.3045" stroke="#F5AB00" stroke-width="2.66646" stroke-linecap="round" stroke-linejoin="round"/>
<path d="M23.0739 3.63983V6.3063" stroke="#F5AB00" stroke-width="2.66646" stroke-linecap="round" stroke-linejoin="round"/>
<path d="M3.07536 16.9721H5.74183" stroke="#F5AB00" stroke-width="2.66646" stroke-linecap="round" stroke-linejoin="round"/>
<path d="M3.07536 23.6383H5.74183" stroke="#F5AB00" stroke-width="2.66646" stroke-linecap="round" stroke-linejoin="round"/>
<path d="M3.07536 10.306H5.74183" stroke="#F5AB00" stroke-width="2.66646" stroke-linecap="round" stroke-linejoin="round"/>
<path d="M27.0735 16.9721H29.74" stroke="#F5AB00" stroke-width="2.66646" stroke-linecap="round" stroke-linejoin="round"/>
<path d="M27.0735 23.6383H29.74" stroke="#F5AB00" stroke-width="2.66646" stroke-linecap="round" stroke-linejoin="round"/>
<path d="M27.0735 10.306H29.74" stroke="#F5AB00" stroke-width="2.66646" stroke-linecap="round" stroke-linejoin="round"/>
<path d="M9.74153 27.638V30.3045" stroke="#F5AB00" stroke-width="2.66646" stroke-linecap="round" stroke-linejoin="round"/>
<path d="M9.74153 3.63983V6.3063" stroke="#F5AB00" stroke-width="2.66646" stroke-linecap="round" stroke-linejoin="round"/>
<path d="M24.4071 6.30627H8.4083C6.93565 6.30627 5.74184 7.50009 5.74184 8.97274V24.9715C5.74184 26.4442 6.93565 27.638 8.4083 27.638H24.4071C25.8797 27.638 27.0736 26.4442 27.0736 24.9715V8.97274C27.0736 7.50009 25.8797 6.30627 24.4071 6.30627Z" stroke="#F5AB00" stroke-width="2.66646" stroke-linecap="round" stroke-linejoin="round"/>
<path d="M20.4074 11.6392H12.408C11.6717 11.6392 11.0748 12.2361 11.0748 12.9725V20.9718C11.0748 21.7082 11.6717 22.3051 12.408 22.3051H20.4074C21.1437 22.3051 21.7406 21.7082 21.7406 20.9718V12.9725C21.7406 12.2361 21.1437 11.6392 20.4074 11.6392Z" stroke="#F5AB00" stroke-width="2.66646" stroke-linecap="round" stroke-linejoin="round"/>
</svg>
