<svg width="125" height="54" viewBox="0 0 125 54" fill="none" xmlns="http://www.w3.org/2000/svg">
<path d="M48.3729 13.1089C49.0447 13.1089 49.4799 13.5452 49.4799 14.1765V35.5323H55.0157C55.6886 35.5323 56.1228 35.9667 56.1228 36.6V39.8027C56.1228 40.4359 55.6884 40.8703 55.0157 40.8703H38.3666C37.6947 40.8703 37.2595 40.4359 37.2595 39.8027V36.6C37.2595 35.9667 37.6947 35.5323 38.3666 35.5323H43.9431V18.4488H38.3666C37.6947 18.4488 37.2595 18.0125 37.2595 17.3407V14.1765C37.2595 13.5452 37.6947 13.1089 38.3666 13.1089H48.3726H48.3729Z" fill="white"/>
<path d="M111.53 3.70947C112.409 3.70947 113.391 4.12308 114.012 4.74375L116.938 7.82307C117.507 8.44348 117.921 9.42606 117.921 10.305V19.9431C117.921 21.0559 118.363 22.1227 119.15 22.9097L120.093 23.8524C120.661 24.4211 121.075 25.4037 121.075 26.2826V27.6787C121.075 28.5577 120.662 29.54 120.093 30.1089L119.139 31.0617C118.359 31.8419 117.921 32.9002 117.921 34.0037V43.6561C117.921 44.535 117.507 45.5176 116.938 46.138L114.012 49.2252C113.391 49.8459 112.409 50.2592 111.53 50.2592H29.2517C28.3463 50.2592 27.6123 49.5253 27.6123 48.6199V45.5567C27.6123 44.6512 28.3463 43.9173 29.2517 43.9173H109.496C109.673 43.9173 109.842 43.8473 109.967 43.7225L111.387 42.3023C111.512 42.1776 111.582 42.0085 111.582 41.8321V30.8522C111.582 30.6757 111.652 30.5067 111.776 30.3819L114.728 27.4306C114.989 27.1697 114.987 26.7462 114.724 26.4869L111.78 23.5846C111.653 23.4596 111.582 23.2891 111.582 23.1111V12.1339C111.582 11.9575 111.512 11.7884 111.387 11.6637L109.967 10.2434C109.842 10.1187 109.673 10.0486 109.497 10.0486H29.2517C28.3463 10.0486 27.6123 9.31472 27.6123 8.40928V5.34911C27.6123 4.44367 28.3463 3.70975 29.2517 3.70975H111.53L111.53 3.70947Z" fill="white"/>
<path d="M23.6883 3.70926C24.5937 3.70926 25.3277 4.44318 25.3277 5.34862V8.40879C25.3277 9.31423 24.5937 10.0482 23.6883 10.0482H14.0679C13.8915 10.0482 13.7224 10.1182 13.5977 10.2429L12.1774 11.6632C12.0527 11.7879 11.9827 11.957 11.9827 12.1334V23.1106C11.9827 23.2887 11.9113 23.4591 11.7846 23.5841L8.84017 26.4864C8.57729 26.7455 8.57592 27.1692 8.83689 27.4302L11.7882 30.3815C11.9129 30.5062 11.9829 30.6752 11.9829 30.8517V41.8316C11.9829 42.008 12.053 42.1771 12.1777 42.3018L13.598 43.7221C13.7227 43.8468 13.8918 43.9168 14.0682 43.9168H23.6886C24.594 43.9168 25.3279 44.6508 25.3279 45.5562V48.6194C25.3279 49.5248 24.594 50.2587 23.6886 50.2587H12.0349C11.156 50.2587 10.1734 49.8451 9.55303 49.2247L6.62663 46.1375C6.05792 45.5171 5.64405 44.5345 5.64405 43.6556V34.0032C5.64405 32.8997 5.20555 31.8414 4.42539 31.0612L3.47236 30.1084C2.90365 29.5395 2.48978 28.5572 2.48978 27.6783V26.2821C2.48978 25.4032 2.90338 24.4206 3.47236 23.8519L4.41527 22.9092C5.20199 22.1225 5.64405 21.0554 5.64405 19.9426V10.3045C5.64405 9.42557 6.05765 8.44299 6.62663 7.82258L9.55303 4.74327C10.1734 4.12259 11.156 3.70898 12.0349 3.70898H23.6886L23.6883 3.70926Z" fill="white"/>
<path d="M15.1982 14.1697C15.1982 13.5384 15.6334 13.1021 16.3053 13.1021H19.6278C20.2104 13.1021 20.6153 13.4303 20.7124 13.9293C20.7575 14.1604 20.8491 14.3801 20.9616 14.5871L28.5257 28.5254V14.1697C28.5257 13.5384 28.9601 13.1021 29.6327 13.1021H32.9541C33.6271 13.1021 34.0612 13.5384 34.0612 14.1697V39.7573C34.0612 40.3681 33.5658 40.8635 32.955 40.8635H29.6325C29.0512 40.8635 28.6477 40.5391 28.5489 40.0177C28.503 39.7759 28.41 39.5453 28.2924 39.3292L20.7345 25.4404V39.7576C20.7345 40.3684 20.2391 40.8638 19.6283 40.8638H16.3047C15.6933 40.8638 15.1977 40.3681 15.1977 39.7567V14.1697H15.1982Z" fill="white"/>
<path d="M59.3211 36.4804C59.3211 35.903 59.6947 35.5293 60.2383 35.5293H63.296C63.8734 35.5293 64.2474 35.903 64.2474 36.4804V39.946C64.2474 40.4898 63.8737 40.8635 63.296 40.8635H60.2383C59.6947 40.8635 59.3211 40.4898 59.3211 39.946V36.4804Z" fill="white"/>
<path d="M80.7726 13.1021C81.445 13.1021 82.1961 13.4183 82.6314 13.8929L85.5181 16.7402C85.9927 17.2148 86.3092 17.966 86.3092 18.6384V39.7562C86.3092 40.4286 85.8743 40.8635 85.2019 40.8635H81.8799C81.2075 40.8635 80.7726 39.8593 80.7726 39.7562V32.4399H72.982V39.7562C72.982 39.8593 72.5471 40.8635 71.8747 40.8635H68.5527C67.8803 40.8635 67.4454 40.4286 67.4454 39.7562V18.6384C67.4454 17.966 67.7616 17.2148 68.2362 16.7402L71.1232 13.8929C71.5978 13.4183 72.3096 13.1021 72.9817 13.1021H80.7723H80.7726ZM72.982 27.1408H80.7726V19.627L79.5862 18.4406H74.1684L72.982 19.627V27.1408Z" fill="white"/>
<path d="M100.145 27.0223C100.145 26.3896 100.58 25.9547 101.252 25.9547H107.263C107.936 25.9547 108.371 26.3896 108.371 27.0223V35.3666C108.371 35.8973 108.054 36.7507 107.58 37.1857L104.693 40.1121C104.218 40.547 103.507 40.8632 102.834 40.8632H95.0435C94.3712 40.8632 93.6594 40.547 93.1851 40.1121L90.298 37.1857C89.8234 36.7507 89.5072 35.9993 89.5072 35.3666V18.599C89.5072 17.9663 89.8234 17.2148 90.298 16.7796L93.1851 13.8532C93.6597 13.4183 94.3714 13.1021 95.0435 13.1021H102.834C103.507 13.1021 104.218 13.4183 104.693 13.8532L107.58 16.7796C108.054 17.2148 108.371 17.966 108.371 18.599V20.8927C108.371 21.5254 107.936 21.9603 107.263 21.9603H103.941C103.269 21.9603 102.834 21.5254 102.834 20.8927V19.6272L101.687 18.4409H96.2302L95.0438 19.6272V34.3386L96.2302 35.525H101.687L102.834 34.3386V31.2935H101.252C100.58 31.2935 100.145 30.8585 100.145 30.2255V27.0223Z" fill="white"/>
</svg>
