<svg width="125" height="54" viewBox="0 0 125 54" fill="none" xmlns="http://www.w3.org/2000/svg">
<path d="M48.3798 13.1142C49.0516 13.1142 49.4868 13.5505 49.4868 14.1819V35.5377H55.0226C55.6955 35.5377 56.1296 35.9721 56.1296 36.6053V39.808C56.1296 40.4413 55.6952 40.8757 55.0226 40.8757H38.3734C37.7016 40.8757 37.2664 40.4413 37.2664 39.808V36.6053C37.2664 35.9721 37.7016 35.5377 38.3734 35.5377H43.95V18.4541H38.3734C37.7016 18.4541 37.2664 18.0178 37.2664 17.346V14.1819C37.2664 13.5505 37.7016 13.1142 38.3734 13.1142H48.3795H48.3798Z" fill="#09235C"/>
<path d="M111.537 3.7146C112.416 3.7146 113.398 4.1282 114.019 4.74888L116.945 7.8282C117.514 8.4486 117.928 9.43118 117.928 10.3101V19.9482C117.928 21.061 118.37 22.1279 119.156 22.9149L120.099 23.8575C120.668 24.4262 121.082 25.4088 121.082 26.2877V27.6839C121.082 28.5628 120.668 29.5451 120.099 30.1141L119.146 31.0668C118.366 31.847 117.928 32.9053 117.928 34.0088V43.6612C117.928 44.5401 117.514 45.5227 116.945 46.1431L114.019 49.2303C113.398 49.851 112.416 50.2644 111.537 50.2644H29.2586C28.3531 50.2644 27.6192 49.5304 27.6192 48.625V45.5618C27.6192 44.6564 28.3531 43.9224 29.2586 43.9224H109.503C109.68 43.9224 109.849 43.8524 109.974 43.7277L111.394 42.3074C111.519 42.1827 111.589 42.0136 111.589 41.8372V30.8573C111.589 30.6809 111.659 30.5118 111.783 30.3871L114.735 27.4358C114.996 27.1748 114.994 26.7514 114.731 26.492L111.787 23.5897C111.66 23.4647 111.589 23.2943 111.589 23.1162V12.139C111.589 11.9626 111.519 11.7935 111.394 11.6688L109.974 10.2485C109.849 10.1238 109.68 10.0538 109.504 10.0538H29.2586C28.3531 10.0538 27.6192 9.31985 27.6192 8.41441V5.35424C27.6192 4.4488 28.3531 3.71487 29.2586 3.71487H111.537L111.537 3.7146Z" fill="#09235C"/>
<path d="M23.6952 3.7146C24.6006 3.7146 25.3345 4.44852 25.3345 5.35397V8.41413C25.3345 9.31957 24.6006 10.0535 23.6952 10.0535H14.0748C13.8984 10.0535 13.7293 10.1235 13.6046 10.2483L12.1843 11.6685C12.0596 11.7933 11.9895 11.9623 11.9895 12.1387V23.1159C11.9895 23.294 11.9181 23.4644 11.7915 23.5894L8.84704 26.4918C8.58416 26.7508 8.58279 27.1745 8.84375 27.4355L11.7951 30.3868C11.9198 30.5115 11.9898 30.6806 11.9898 30.857V41.8369C11.9898 42.0134 12.0598 42.1824 12.1846 42.3071L13.6048 43.7274C13.7296 43.8521 13.8986 43.9222 14.0751 43.9222H23.6954C24.6009 43.9222 25.3348 44.6561 25.3348 45.5615V48.6247C25.3348 49.5302 24.6009 50.2641 23.6954 50.2641H12.0418C11.1629 50.2641 10.1803 49.8505 9.5599 49.2301L6.63349 46.1428C6.06479 45.5224 5.65091 44.5398 5.65091 43.6609V34.0086C5.65091 32.9051 5.21242 31.8467 4.43226 31.0666L3.47922 30.1138C2.91052 29.5448 2.49664 28.5625 2.49664 27.6836V26.2874C2.49664 25.4085 2.91025 24.4259 3.47922 23.8572L4.42214 22.9146C5.20886 22.1279 5.65091 21.0608 5.65091 19.948V10.3098C5.65091 9.43091 6.06452 8.44833 6.63349 7.82792L9.5599 4.74861C10.1803 4.12793 11.1629 3.71432 12.0418 3.71432H23.6954L23.6952 3.7146Z" fill="#09235C"/>
<path d="M15.2051 14.175C15.2051 13.5437 15.6403 13.1074 16.3122 13.1074H19.6347C20.2173 13.1074 20.6222 13.4356 20.7193 13.9346C20.7644 14.1657 20.856 14.3854 20.9685 14.5924L28.5326 28.5308V14.175C28.5326 13.5437 28.967 13.1074 29.6396 13.1074H32.961C33.634 13.1074 34.0681 13.5437 34.0681 14.175V39.7626C34.0681 40.3734 33.5727 40.8688 32.9619 40.8688H29.6394C29.0581 40.8688 28.6546 40.5444 28.5558 40.023C28.5099 39.7812 28.4169 39.5506 28.2992 39.3345L20.7414 25.4457V39.7629C20.7414 40.3737 20.246 40.8691 19.6352 40.8691H16.3116C15.7002 40.8691 15.2046 40.3734 15.2046 39.762V14.175H15.2051Z" fill="#09235C"/>
<path d="M59.3279 36.4858C59.3279 35.9083 59.7016 35.5347 60.2451 35.5347H63.3028C63.8803 35.5347 64.2542 35.9083 64.2542 36.4858V39.9514C64.2542 40.4952 63.8806 40.8688 63.3028 40.8688H60.2451C59.7016 40.8688 59.3279 40.4952 59.3279 39.9514V36.4858Z" fill="#09235C"/>
<path d="M80.7795 13.1074C81.4519 13.1074 82.203 13.4236 82.6382 13.8982L85.525 16.7455C85.9996 17.2201 86.3161 17.9713 86.3161 18.6437V39.7615C86.3161 40.4339 85.8811 40.8688 85.2087 40.8688H81.8868C81.2144 40.8688 80.7795 39.8646 80.7795 39.7615V32.4452H72.9889V39.7615C72.9889 39.8646 72.5539 40.8688 71.8815 40.8688H68.5596C67.8872 40.8688 67.4523 40.4339 67.4523 39.7615V18.6437C67.4523 17.9713 67.7685 17.2201 68.2431 16.7455L71.1301 13.8982C71.6047 13.4236 72.3165 13.1074 72.9886 13.1074H80.7792H80.7795ZM72.9889 27.1461H80.7795V19.6323L79.5931 18.4459H74.1752L72.9889 19.6323V27.1461Z" fill="#09235C"/>
<path d="M100.152 27.0274C100.152 26.3947 100.587 25.9597 101.259 25.9597H107.27C107.943 25.9597 108.378 26.3947 108.378 27.0274V35.3716C108.378 35.9023 108.061 36.7558 107.587 37.1907L104.7 40.1171C104.225 40.5521 103.513 40.8683 102.841 40.8683H95.0504C94.378 40.8683 93.6663 40.5521 93.1919 40.1171L90.3049 37.1907C89.8303 36.7558 89.5141 36.0044 89.5141 35.3716V18.604C89.5141 17.9713 89.8303 17.2199 90.3049 16.7847L93.1919 13.8583C93.6665 13.4233 94.3783 13.1071 95.0504 13.1071H102.841C103.513 13.1071 104.225 13.4233 104.7 13.8583L107.587 16.7847C108.061 17.2199 108.378 17.9711 108.378 18.604V20.8977C108.378 21.5304 107.943 21.9654 107.27 21.9654H103.948C103.276 21.9654 102.841 21.5304 102.841 20.8977V19.6323L101.694 18.4459H96.2371L95.0507 19.6323V34.3437L96.2371 35.53H101.694L102.841 34.3437V31.2985H101.259C100.587 31.2985 100.152 30.8636 100.152 30.2306V27.0274Z" fill="#09235C"/>
</svg>
